<?xml version="1.0" encoding="UTF-8" standalone="no"?><!-- Generator: Gravit.io --><svg xmlns="http://www.w3.org/2000/svg" xmlns:xlink="http://www.w3.org/1999/xlink" style="isolation:isolate" viewBox="0 0 1200 550" width="1200pt" height="550pt"><defs><clipPath id="_clipPath_09mdlQDhOIstHeHVLuMwS92mHPjlpO5c"><rect width="1200" height="550"/></clipPath></defs><g clip-path="url(#_clipPath_09mdlQDhOIstHeHVLuMwS92mHPjlpO5c)"><g/><g><g><radialGradient id="_rgradient_0" fx="0.5" fy="0.5" cx="0.5" cy="0.5" r="0.5" gradientTransform="matrix(-1038.262,3.683,-805.738,1020.317,1161.131,-242.841)" gradientUnits="userSpaceOnUse"><stop offset="0%" stop-opacity="1" style="stop-color:rgb(255,238,0)"/><stop offset="100%" stop-opacity="1" style="stop-color:rgb(255,0,0)"/></radialGradient><polygon points="250.744,518.632,28.887,403.953,17.274,154.479,227.518,19.685,449.375,134.365,460.988,383.838" fill="url(#_rgradient_0)" vector-effect="non-scaling-stroke" stroke-width="5" stroke="rgb(255,0,0)" stroke-linejoin="miter" stroke-linecap="square" stroke-miterlimit="3"/><radialGradient id="_rgradient_1" fx="0.49999999999999956" fy="0.5000000000000003" cx="0.5" cy="0.5" r="0.5" gradientTransform="matrix(454.039,-745.211,-2026.039,1249.211,1388.981,25.605)" gradientUnits="userSpaceOnUse"><stop offset="0%" stop-opacity="1" style="stop-color:rgb(63,107,227)"/><stop offset="100%" stop-opacity="1" style="stop-color:rgb(255,238,0)"/></radialGradient><polygon points="643.191,524.091,409.623,435.671,369.413,189.186,562.77,31.12,796.338,119.539,836.548,366.024" fill="url(#_rgradient_1)" vector-effect="non-scaling-stroke" stroke-width="5" stroke="rgb(0,13,255)" stroke-linejoin="miter" stroke-linecap="square" stroke-miterlimit="3"/><radialGradient id="_rgradient_2" fx="0.5" fy="0.5" cx="0.5" cy="0.5" r="0.5" gradientTransform="matrix(1212.135,540.543,-1096.135,2143.457,893.932,-1059.271)" gradientUnits="userSpaceOnUse"><stop offset="0%" stop-opacity="1" style="stop-color:rgb(255,238,0)"/><stop offset="100%" stop-opacity="1" style="stop-color:rgb(11,219,36)"/></radialGradient><polygon points="984.688,530.315,753.894,434.889,721.139,187.303,919.177,35.142,1149.971,130.569,1182.726,378.155" fill="url(#_rgradient_2)" vector-effect="non-scaling-stroke" stroke-width="5" stroke="rgb(11,219,36)" stroke-linejoin="miter" stroke-linecap="square" stroke-miterlimit="3"/><defs><filter id="N4gjpcFpeYLcsWmNnjgzDTMCGI2KLIqb" x="-200%" y="-200%" width="400%" height="400%" filterUnits="objectBoundingBox" color-interpolation-filters="sRGB"><feGaussianBlur xmlns="http://www.w3.org/2000/svg" in="SourceGraphic" stdDeviation="4.293609062839028"/><feOffset xmlns="http://www.w3.org/2000/svg" dx="0" dy="0" result="pf_100_offsetBlur"/><feFlood xmlns="http://www.w3.org/2000/svg" flood-color="#000000" flood-opacity="0.8"/><feComposite xmlns="http://www.w3.org/2000/svg" in2="pf_100_offsetBlur" operator="in" result="pf_100_dropShadow"/><feBlend xmlns="http://www.w3.org/2000/svg" in="SourceGraphic" in2="pf_100_dropShadow" mode="normal"/></filter></defs><g filter="url(#N4gjpcFpeYLcsWmNnjgzDTMCGI2KLIqb)"><path d=" M 281.672 348.158 L 281.672 348.158 L 281.672 348.158 Q 281.672 385.853 254.328 406.947 L 254.328 406.947 L 254.328 406.947 Q 226.984 428.041 180.109 428.041 L 180.109 428.041 L 180.109 428.041 C 149.649 415.909 123.617 411.557 101.984 414.955 L 101.984 414.955 L 104.641 389.271 L 101.984 382.924 Q 125.016 406.292 133.016 399.959 L 140.266 394.642 L 140.266 394.642 Q 160.969 398.939 181.281 398.939 L 181.281 398.939 L 181.281 398.939 Q 214.484 398.939 231.281 386.342 L 231.281 386.342 L 231.281 386.342 Q 248.078 373.744 248.078 351.283 L 248.078 351.283 L 248.078 351.283 Q 248.078 336.439 242.121 326.967 L 242.121 326.967 L 242.121 326.967 Q 236.164 317.494 222.199 309.486 L 222.199 309.486 L 222.199 309.486 Q 208.234 301.478 179.719 291.322 L 179.719 291.322 L 179.719 291.322 C 165.648 289.474 155.516 290.459 145.516 292.959 C 138.516 287.959 136.701 279.202 132.016 270.459 C 129.189 265.185 127.833 258.3 122.785 257.533 L 122.785 257.533 L 122.785 257.533 Q 105.695 238.002 105.695 206.556 L 105.695 206.556 L 105.695 206.556 Q 105.695 173.549 130.5 154.017 L 130.5 154.017 L 130.5 154.017 Q 155.305 134.486 196.125 134.486 L 196.125 134.486 L 196.125 134.486 Q 238.703 134.486 274.445 150.111 L 274.445 150.111 L 264.094 179.017 L 264.094 179.017 Q 245.536 183.67 228.349 179.959 C 216.891 177.485 206.477 164.174 195.344 164.174 L 195.344 164.174 L 195.344 164.174 Q 168.977 164.174 154.133 175.502 L 154.133 175.502 L 154.133 175.502 Q 139.289 186.83 139.289 206.947 L 139.289 206.947 L 139.289 206.947 Q 139.289 221.791 144.758 231.263 L 144.758 231.263 L 144.758 231.263 Q 150.227 240.736 163.215 248.646 L 163.215 248.646 L 163.215 248.646 Q 176.203 256.556 202.961 266.127 L 202.961 266.127 L 202.961 266.127 Q 247.883 282.142 264.777 300.502 L 264.777 300.502 L 264.777 300.502 Q 281.672 318.861 281.672 348.158 Z  M 587.922 280.97 L 587.922 280.97 L 587.922 280.97 Q 587.922 349.525 553.254 388.783 L 553.254 388.783 L 553.254 388.783 Q 518.586 428.041 456.867 428.041 L 456.867 428.041 L 456.867 428.041 Q 393.781 428.041 359.504 389.467 L 359.504 389.467 L 359.504 389.467 Q 325.227 350.892 325.227 280.58 L 325.227 280.58 L 325.227 280.58 Q 325.227 210.853 359.602 172.474 L 359.602 172.474 L 359.602 172.474 Q 393.977 134.095 457.258 134.095 L 457.258 134.095 L 457.258 134.095 Q 518.781 134.095 553.352 173.158 L 553.352 173.158 L 553.352 173.158 Q 587.922 212.22 587.922 280.97 Z  M 360.383 280.97 L 360.383 280.97 L 360.383 280.97 Q 360.383 338.978 385.09 368.959 L 385.09 368.959 L 385.09 368.959 Q 409.797 398.939 456.867 398.939 L 456.867 398.939 L 456.867 398.939 Q 504.328 398.939 528.547 369.056 L 528.547 369.056 L 528.547 369.056 Q 552.766 339.174 552.766 280.97 L 552.766 280.97 L 552.766 280.97 Q 552.766 223.353 528.645 193.568 L 528.645 193.568 L 528.645 193.568 Q 504.523 163.783 457.258 163.783 L 457.258 163.783 L 457.258 163.783 Q 409.797 163.783 385.09 193.763 L 385.09 193.763 L 385.09 193.763 Q 360.383 223.744 360.383 280.97 Z  M 768.682 165.625 L 743.016 202.625 L 759.766 414.959 L 739.484 424.135 L 706.281 424.135 L 690.016 408.959 L 701.016 203.292 L 681.016 164.959 L 615.852 168.08 L 615.852 138.588 L 829.914 138.588 L 829.914 168.08 L 768.682 165.625 Z  M 1086.75 424.135 L 1052.375 424.135 L 1016.828 333.314 L 902.375 333.314 L 867.219 424.135 L 833.625 424.135 L 946.516 137.416 L 974.445 137.416 L 1086.75 424.135 Z  M 914.094 303.431 L 1006.477 303.431 L 973.273 214.955 L 973.273 214.955 Q 966.828 198.158 959.992 173.744 L 959.992 173.744 L 959.992 173.744 Q 955.695 192.494 947.688 214.955 L 947.688 214.955 L 914.094 303.431 Z " fill="rgb(63,107,227)" vector-effect="non-scaling-stroke" stroke-width="5" stroke="rgb(0,0,0)" stroke-linejoin="miter" stroke-linecap="square" stroke-miterlimit="3"/></g><path d=" M 487.13 396.307 L 494.407 408.911 L 512.611 408.911 L 530.815 408.911 L 530.815 408.911 L 530.815 408.911 L 530.815 408.911 L 530.815 408.911 L 530.815 408.911 L 530.815 408.911 L 530.815 408.911 L 530.815 408.911 L 530.815 408.911 L 530.815 408.911 L 530.815 408.911 L 530.815 408.911 L 530.815 408.911 L 539.917 393.146 L 549.019 377.381 L 539.917 361.615 L 538.133 358.525 Q 534.707 364.445 530.577 369.541 L 530.577 369.541 L 530.577 369.541 Q 514.18 389.773 487.13 396.307 Z  M 364.614 249.725 L 363.453 247.714 L 365.564 244.057 Q 365.046 246.844 364.614 249.725 Z  M 425.112 394.719 L 416.149 410.245 L 416.149 410.245 L 416.149 410.245 L 416.149 410.245 L 416.149 410.245 L 416.149 410.245 L 416.149 410.245 L 416.149 410.245 L 416.149 410.245 L 416.149 410.245 L 416.149 410.245 L 416.149 410.245 L 397.944 410.245 L 385.692 410.245 Q 380.515 407.067 375.752 403.336 L 370.638 394.479 L 361.536 378.714 L 370.638 362.949 L 376.424 352.927 Q 381.019 362.04 387.12 369.444 L 387.12 369.444 L 387.12 369.444 Q 402.039 387.547 425.112 394.719 Z  M 365.641 319.727 L 361.953 313.339 L 364.075 309.662 Q 364.73 314.841 365.641 319.727 Z  M 426.738 425.677 L 418.869 412.047 L 427.971 396.282 L 428.333 395.656 Q 442.21 399.424 458.897 399.424 L 458.897 399.424 L 458.897 399.424 Q 471.872 399.424 483.109 397.191 L 491.686 412.047 L 483.13 426.867 Q 471.585 428.526 458.897 428.526 L 458.897 428.526 L 458.897 428.526 Q 441.754 428.526 426.738 425.677 Z  M 553.267 308.911 L 568.611 308.911 L 586.815 308.911 L 586.815 308.911 L 588.8 305.473 Q 589.952 293.951 589.952 281.455 L 589.952 281.455 L 589.952 281.455 Q 589.952 263.218 587.52 247.07 L 587.284 246.661 L 587.458 246.661 Q 581.797 209.615 563.291 183.6 L 551.157 183.6 L 542.055 199.365 L 538.494 205.532 Q 548.127 222.407 552.068 245.85 L 568.611 245.85 L 586.815 245.85 L 587.284 246.661 L 569.361 246.661 L 552.202 246.661 Q 554.796 262.562 554.796 281.455 L 554.796 281.455 L 554.796 281.455 Q 554.796 296.077 553.267 308.911 Z  M 374.842 349.641 L 368.584 360.479 L 359.482 376.245 L 359.482 376.245 L 359.482 376.245 L 359.482 376.245 L 359.482 376.245 L 359.482 376.245 L 359.482 376.245 L 359.482 376.245 L 359.482 376.245 L 359.482 376.245 L 359.482 376.245 L 351.082 376.245 Q 334.16 350.278 329.257 313.183 L 341.278 313.183 L 359.482 313.183 L 366.987 326.182 Q 369.952 339.002 374.842 349.641 Z  M 363.532 304.873 L 360.815 309.578 L 360.815 309.578 L 360.815 309.578 L 360.815 309.578 L 360.815 309.578 L 360.815 309.578 L 360.815 309.578 L 360.815 309.578 L 360.815 309.578 L 360.815 309.578 L 342.611 309.578 L 328.812 309.578 Q 327.257 296.041 327.257 281.065 L 327.257 281.065 L 327.257 281.065 Q 327.257 262.704 329.64 246.517 L 342.611 246.517 L 360.815 246.517 L 364.229 252.43 Q 362.413 265.941 362.413 281.455 L 362.413 281.455 L 362.413 281.455 L 362.413 281.455 Q 362.413 293.799 363.532 304.873 Z  M 378.37 207.073 L 372.638 197.146 L 363.536 181.381 L 372.638 165.615 L 376.245 159.368 Q 383.169 154.035 390.957 149.85 L 399.944 149.85 L 418.149 149.85 L 427.251 165.615 L 428.628 168.001 Q 403.109 174.846 387.12 194.248 L 387.12 194.248 L 387.12 194.248 Q 382.268 200.135 378.37 207.073 Z  M 366.346 240.129 L 362.815 246.245 L 362.815 246.245 L 362.815 246.245 L 362.815 246.245 L 362.815 246.245 L 362.815 246.245 L 362.815 246.245 L 362.815 246.245 L 344.611 246.245 L 329.681 246.245 Q 335.229 208.924 353.476 183.183 L 362.815 183.183 L 371.917 198.949 L 377.51 208.636 Q 370.118 222.387 366.346 240.129 Z  M 484.992 166.823 L 485.305 166.282 L 494.407 150.517 L 512.611 150.517 L 526.885 150.517 Q 529.975 152.257 532.934 154.187 L 539.917 166.282 L 549.019 182.047 L 539.917 197.813 L 536.957 202.94 Q 534.052 198.224 530.675 194.053 L 530.675 194.053 L 530.675 194.053 Q 513.619 172.992 484.992 166.823 Z  M 430.982 167.401 L 429.055 164.063 L 419.953 148.297 L 426.137 137.585 Q 441.581 134.58 459.288 134.58 L 459.288 134.58 L 459.288 134.58 Q 473.365 134.58 486.031 136.625 L 492.769 148.297 L 483.667 164.063 L 482.378 166.296 Q 471.621 164.268 459.288 164.268 L 459.288 164.268 L 459.288 164.268 Q 443.946 164.268 430.982 167.401 Z  M 567.027 373.578 L 550.407 373.578 L 541.305 357.813 L 539.886 355.355 Q 549.722 336.73 553.069 310.517 L 568.611 310.517 L 586.815 310.517 L 587.975 312.526 Q 583.22 347.885 567.027 373.578 Z " fill-rule="evenodd" fill="rgb(255,238,0)" vector-effect="non-scaling-stroke" stroke-width="5" stroke="rgb(0,0,0)" stroke-linejoin="miter" stroke-linecap="square" stroke-miterlimit="3"/><path d=" M 973.891 135.959 L 986.349 123.959 L 1098.016 403.959 L 1090.516 420.459 L 973.891 135.959 Z " fill="rgb(255,255,255)" vector-effect="non-scaling-stroke" stroke-width="5" stroke="rgb(0,0,0)" stroke-linejoin="miter" stroke-linecap="square" stroke-miterlimit="3"/><line x1="985.016" y1="158.459" x2="997.516" y2="147.959" vector-effect="non-scaling-stroke" stroke-width="1" stroke="rgb(0,0,0)" stroke-linejoin="miter" stroke-linecap="square" stroke-miterlimit="3"/><line x1="978.891" y1="148.209" x2="991.391" y2="137.709" vector-effect="non-scaling-stroke" stroke-width="1" stroke="rgb(0,0,0)" stroke-linejoin="miter" stroke-linecap="square" stroke-miterlimit="3"/><line x1="988.766" y1="172.459" x2="1001.266" y2="161.959" vector-effect="non-scaling-stroke" stroke-width="1" stroke="rgb(0,0,0)" stroke-linejoin="miter" stroke-linecap="square" stroke-miterlimit="3"/><line x1="994.516" y1="186.459" x2="1007.016" y2="175.959" vector-effect="non-scaling-stroke" stroke-width="1" stroke="rgb(0,0,0)" stroke-linejoin="miter" stroke-linecap="square" stroke-miterlimit="3"/><line x1="999.266" y1="200.459" x2="1011.766" y2="189.959" vector-effect="non-scaling-stroke" stroke-width="1" stroke="rgb(0,0,0)" stroke-linejoin="miter" stroke-linecap="square" stroke-miterlimit="3"/><line x1="1007.016" y1="214.459" x2="1019.516" y2="203.959" vector-effect="non-scaling-stroke" stroke-width="1" stroke="rgb(0,0,0)" stroke-linejoin="miter" stroke-linecap="square" stroke-miterlimit="3"/><line x1="1011.766" y1="228.459" x2="1024.266" y2="217.959" vector-effect="non-scaling-stroke" stroke-width="1" stroke="rgb(0,0,0)" stroke-linejoin="miter" stroke-linecap="square" stroke-miterlimit="3"/><line x1="1016.516" y1="242.459" x2="1029.016" y2="231.959" vector-effect="non-scaling-stroke" stroke-width="1" stroke="rgb(0,0,0)" stroke-linejoin="miter" stroke-linecap="square" stroke-miterlimit="3"/><line x1="1021.266" y1="256.459" x2="1033.766" y2="245.959" vector-effect="non-scaling-stroke" stroke-width="1" stroke="rgb(0,0,0)" stroke-linejoin="miter" stroke-linecap="square" stroke-miterlimit="3"/><line x1="1026.016" y1="270.459" x2="1038.516" y2="259.959" vector-effect="non-scaling-stroke" stroke-width="1" stroke="rgb(0,0,0)" stroke-linejoin="miter" stroke-linecap="square" stroke-miterlimit="3"/><line x1="1034.766" y1="284.459" x2="1047.266" y2="273.959" vector-effect="non-scaling-stroke" stroke-width="1" stroke="rgb(0,0,0)" stroke-linejoin="miter" stroke-linecap="square" stroke-miterlimit="3"/><line x1="1039.516" y1="298.459" x2="1052.016" y2="287.959" vector-effect="non-scaling-stroke" stroke-width="1" stroke="rgb(0,0,0)" stroke-linejoin="miter" stroke-linecap="square" stroke-miterlimit="3"/><line x1="1044.266" y1="312.459" x2="1056.766" y2="301.959" vector-effect="non-scaling-stroke" stroke-width="1" stroke="rgb(0,0,0)" stroke-linejoin="miter" stroke-linecap="square" stroke-miterlimit="3"/><line x1="1049.016" y1="326.459" x2="1061.516" y2="315.959" vector-effect="non-scaling-stroke" stroke-width="1" stroke="rgb(0,0,0)" stroke-linejoin="miter" stroke-linecap="square" stroke-miterlimit="3"/><line x1="1056.766" y1="340.459" x2="1069.266" y2="329.959" vector-effect="non-scaling-stroke" stroke-width="1" stroke="rgb(0,0,0)" stroke-linejoin="miter" stroke-linecap="square" stroke-miterlimit="3"/><line x1="1061.516" y1="354.459" x2="1074.016" y2="343.959" vector-effect="non-scaling-stroke" stroke-width="1" stroke="rgb(0,0,0)" stroke-linejoin="miter" stroke-linecap="square" stroke-miterlimit="3"/><line x1="1066.266" y1="368.459" x2="1078.766" y2="357.959" vector-effect="non-scaling-stroke" stroke-width="1" stroke="rgb(0,0,0)" stroke-linejoin="miter" stroke-linecap="square" stroke-miterlimit="3"/><line x1="1071.016" y1="382.459" x2="1083.516" y2="371.959" vector-effect="non-scaling-stroke" stroke-width="1" stroke="rgb(0,0,0)" stroke-linejoin="miter" stroke-linecap="square" stroke-miterlimit="3"/><line x1="1075.766" y1="396.459" x2="1088.266" y2="385.959" vector-effect="non-scaling-stroke" stroke-width="1" stroke="rgb(0,0,0)" stroke-linejoin="miter" stroke-linecap="square" stroke-miterlimit="3"/><line x1="1082.516" y1="407.459" x2="1095.016" y2="396.959" vector-effect="non-scaling-stroke" stroke-width="1" stroke="rgb(0,0,0)" stroke-linejoin="miter" stroke-linecap="square" stroke-miterlimit="3"/><path d=" M 948.859 133.084 L 955.891 121.474 L 981.953 121.99 L 973.203 133.271 L 948.859 133.084 Z " fill="rgb(255,255,255)" vector-effect="non-scaling-stroke" stroke-width="5" stroke="rgb(0,0,0)" stroke-linejoin="miter" stroke-linecap="square" stroke-miterlimit="3"/></g></g></g></svg>